<svg xmlns="http://www.w3.org/2000/svg" viewBox="0 0 512 512" width="512" height="512">
  <defs>
    <linearGradient id="sky" x1="0" y1="0" x2="0" y2="1">
      <stop offset="0" stop-color="#7dd3fc"/>
      <stop offset="1" stop-color="#0e7490"/>
    </linearGradient>
    <linearGradient id="lake" x1="0" y1="0" x2="0" y2="1">
      <stop offset="0" stop-color="#22d3ee"/>
      <stop offset="1" stop-color="#0891b2"/>
    </linearGradient>
  </defs>
  <rect width="512" height="512" rx="112" fill="url(#sky)"/>
  <circle cx="140" cy="150" r="46" fill="#fde68a"/>
  <!-- mountains -->
  <path d="M0 340 L120 190 L210 300 L300 170 L410 320 L512 240 L512 400 L0 400 Z" fill="#1e6b7a"/>
  <path d="M255 205 l25 34 -50 0 z" fill="#f1f5f9"/>
  <path d="M300 170 l30 42 -60 0 z" fill="#f8fafc"/>
  <!-- lake -->
  <rect x="0" y="360" width="512" height="152" fill="url(#lake)"/>
  <!-- road -->
  <path d="M150 512 L235 372 L285 372 L200 512 Z" fill="#334155"/>
  <rect x="212" y="392" width="14" height="26" rx="6" fill="#fde68a" transform="rotate(-30 219 405)"/>
  <rect x="190" y="452" width="16" height="30" rx="7" fill="#fde68a" transform="rotate(-30 198 467)"/>
  <!-- car -->
  <g transform="translate(256 420)">
    <ellipse cx="0" cy="34" rx="70" ry="12" fill="#0369a1" opacity="0.35"/>
    <rect x="-64" y="-6" width="128" height="42" rx="18" fill="#fb7185"/>
    <path d="M-42 -6 q10 -34 42 -34 q34 0 44 34 z" fill="#f43f5e"/>
    <rect x="-30" y="-26" width="26" height="20" rx="6" fill="#cffafe"/>
    <rect x="6" y="-26" width="26" height="20" rx="6" fill="#cffafe"/>
    <circle cx="-38" cy="38" r="17" fill="#0f172a"/>
    <circle cx="-38" cy="38" r="7" fill="#94a3b8"/>
    <circle cx="38" cy="38" r="17" fill="#0f172a"/>
    <circle cx="38" cy="38" r="7" fill="#94a3b8"/>
  </g>
</svg>
